<svg width="66" height="97" viewBox="0 0 66 97" fill="none" xmlns="http://www.w3.org/2000/svg">
<path d="M57.3347 41.4612C57.3347 41.4612 59.3931 27.3806 51.0425 16.4739" stroke="white" stroke-width="3" stroke-linecap="round" stroke-linejoin="round"/>
<path d="M63.618 35.9399C63.618 35.9399 64.3992 25.4181 57.5107 17.7847" stroke="white" stroke-width="3" stroke-linecap="round" stroke-linejoin="round"/>
<path d="M2 90.8799C2 90.8799 7.5795 81.523 7.0215 69.7852C6.4635 58.048 6.4635 43.8303 6.4635 43.8303C6.4635 43.8303 6.69613 36.8919 11.113 33.6201" stroke="white" stroke-width="3" stroke-linecap="round" stroke-linejoin="round"/>
<path d="M19.2968 94.7753L24.5043 76.2262C24.5043 76.2262 25.4343 72.0338 21.9003 65.412C18.3668 58.7902 23.5743 53.04 23.5743 53.04C23.5743 53.04 29.8978 43.556 26.1783 41.0638C22.4583 38.5716 12.9733 51.3705 11.1133 55.2656" stroke="white" stroke-width="3" stroke-linecap="round" stroke-linejoin="round"/>
<path d="M15.187 49.0884C15.187 49.0884 9.99686 31.3378 8.88086 21.8775C8.88086 21.8775 15.0883 19.7499 17.2504 31.9982L21.5556 42.3657" stroke="white" stroke-width="3" stroke-linecap="round" stroke-linejoin="round"/>
<path d="M16.7275 29.5853C16.7275 29.5853 20.5973 23.662 25.9923 26.7567C33.7165 31.188 38.5565 36.0874 35.1053 40.7448C32.8188 43.8306 24.5043 31.9978 24.5043 31.9978L23.3883 40.7448" stroke="white" stroke-width="3" stroke-linecap="round" stroke-linejoin="round"/>
<path d="M22.9232 25.4459C22.9232 25.4459 23.8165 21.5068 19.2319 15.7566C14.6464 10.0064 13.7442 4.81279 15.2188 2.58672C16.6924 0.360661 22.9435 9.82094 22.9435 9.82094C22.9435 9.82094 31.4876 19.0868 32.8189 30.5792" stroke="white" stroke-width="3" stroke-linecap="round" stroke-linejoin="round"/>
<path d="M30.5469 21.7361C30.5469 21.7361 39.0409 24.0764 39.897 29.7657C39.897 29.7657 42.2753 38.8778 36.2375 35.412" stroke="white" stroke-width="3" stroke-linecap="round" stroke-linejoin="round"/>
<path d="M37.415 25.446C37.415 25.446 43.0337 24.4057 44.9354 28.4606C46.8366 32.516 46.6466 37.9397 46.6466 37.9397C46.6466 37.9397 43.8625 40.1109 40.3583 35.4124" stroke="white" stroke-width="3" stroke-linecap="round" stroke-linejoin="round"/>
<path d="M44.374 38.7939C44.374 38.7939 47.8594 53.4899 46.2544 71.9346C44.6498 90.3793 45.4087 83.3766 48.6188 90.8799" stroke="white" stroke-width="3" stroke-linecap="round" stroke-linejoin="round"/>
<path d="M24.0996 77.666L26.093 93.6897" stroke="white" stroke-width="3" stroke-linecap="round" stroke-linejoin="round"/>
<path d="M38.597 26.7568C38.597 26.7568 38.4373 18.5748 34.6771 15.1373C30.9169 11.6993 22.9254 3.2605 22.9254 3.2605C22.9254 3.2605 20.1404 4.81676 22.9432 9.82096" stroke="white" stroke-width="3" stroke-linecap="round" stroke-linejoin="round"/>
</svg>
