<svg width="96" height="74" viewBox="0 0 96 74" fill="none" xmlns="http://www.w3.org/2000/svg">
<path d="M3.12207 60.6294L13.7465 48.1016C13.7465 48.1016 12.6258 18.4093 33.4002 13.2604C33.4002 13.2604 34.4694 13.0482 34.9558 13.5901C35.2477 13.915 35.9507 14.5889 34.8462 15.5881" stroke="white" stroke-width="3" stroke-linecap="round" stroke-linejoin="round"/>
<path d="M25.561 28.3868C25.561 28.3868 40.8727 6.93318 44.6997 8.8533C44.6997 8.8533 47.5556 9.33354 45.8134 12.5029" stroke="white" stroke-width="3" stroke-linecap="round" stroke-linejoin="round"/>
<path d="M32.2925 31.0441C32.2925 31.0441 44.8014 6.43868 51.789 8.90551C51.789 8.90551 54.8765 10.595 52.2323 13.7106C49.588 16.8259 38.2866 35.0586 38.2866 35.0586" stroke="white" stroke-width="3" stroke-linecap="round" stroke-linejoin="round"/>
<path d="M51.676 15.1874C51.676 15.1874 53.8827 13.5623 55.6945 14.8172C57.5063 16.0722 53.0071 23.1461 53.0071 23.1461C53.0071 23.1461 44.8055 35.7131 42.3901 42.9089" stroke="white" stroke-width="3" stroke-linecap="round" stroke-linejoin="round"/>
<path d="M46.4595 33.6903C46.4595 33.6903 49.8921 29.7277 51.8994 31.7412C53.9071 33.7546 50.875 36.9869 48.7872 42.9595C46.6994 48.9315 41.4061 54.8851 28.1625 57.7393L18.8291 71.667" stroke="white" stroke-width="3" stroke-linecap="round" stroke-linejoin="round"/>
<path d="M5.36572 26.5709C5.36572 26.5709 8.96561 14.4313 19.7648 8.73169" stroke="white" stroke-width="3" stroke-linecap="round" stroke-linejoin="round"/>
<path d="M2 19.9995C2 19.9995 5.29967 11.2097 13.6994 7.60986" stroke="white" stroke-width="3" stroke-linecap="round" stroke-linejoin="round"/>
<path d="M88.3645 42.1861C88.3645 42.1861 90.1909 29.6565 82.7803 19.9512" stroke="white" stroke-width="3" stroke-linecap="round" stroke-linejoin="round"/>
<path d="M93.8102 37.2287C93.8102 37.2287 94.5035 27.8654 88.3901 21.0732" stroke="white" stroke-width="3" stroke-linecap="round" stroke-linejoin="round"/>
<path d="M54.1136 55.4301C54.1136 55.4301 50.3042 42.4766 63.6375 32.4164C63.6375 32.4164 61.213 11.7195 67.793 12.1029C67.793 12.1029 69.1034 13.8161 70.1423 18.8378C71.1811 23.8595 72.2952 31.1874 70.737 38.2873" stroke="white" stroke-width="3" stroke-linecap="round" stroke-linejoin="round"/>
<path d="M47.1535 46.8779C47.1535 46.8779 44.9292 62.1869 53.1194 71.2284" stroke="white" stroke-width="3" stroke-linecap="round" stroke-linejoin="round"/>
<path d="M48.3155 8.76369C48.3155 8.76369 43.8683 4.11923 46.6978 2.19075C49.5278 0.262711 65.0331 13.586 65.0331 13.586" stroke="white" stroke-width="3" stroke-linecap="round" stroke-linejoin="round"/>
<path d="M71.561 22.1951C71.561 22.1951 83.2697 31.5395 76.8623 47.8098C76.8623 47.8098 72.0765 61.483 72.3045 72.2193" stroke="white" stroke-width="3" stroke-linecap="round" stroke-linejoin="round"/>
<path d="M55.8535 17.7073L62.9142 24.5958" stroke="white" stroke-width="3" stroke-linecap="round" stroke-linejoin="round"/>
<path d="M58.4427 28.4907L53.6099 22.1951" stroke="white" stroke-width="3" stroke-linecap="round" stroke-linejoin="round"/>
<path d="M73.9949 37.1439L71.561 34.5366" stroke="white" stroke-width="3" stroke-linecap="round" stroke-linejoin="round"/>
<path d="M46.0513 4.24924C46.0513 4.24924 39.7152 3.86011 41.6278 9.7261" stroke="white" stroke-width="3" stroke-linecap="round" stroke-linejoin="round"/>
</svg>
