<svg width="281" height="255" viewBox="0 0 281 255" fill="none" xmlns="http://www.w3.org/2000/svg">
<path fill-rule="evenodd" clip-rule="evenodd" d="M235.952 58.7164C257.442 87.2344 251.747 127.772 223.225 149.264C194.707 170.755 154.17 165.056 132.68 136.538C111.19 108.02 116.885 67.4824 145.404 45.9919C173.926 24.4994 214.462 30.1984 235.952 58.7164Z" stroke="#5CDABE" stroke-width="8" stroke-linecap="round" stroke-linejoin="round"/>
<path d="M120.098 93.9083L127.635 88.229L139.681 61.6823L137.544 52.8459" stroke="#5CDABE" stroke-width="8" stroke-linecap="round" stroke-linejoin="round"/>
<path d="M140.027 62.315L159.898 57.403L174.883 43.1223L167.896 35.5568" stroke="#5CDABE" stroke-width="8" stroke-linecap="round" stroke-linejoin="round"/>
<path d="M214.957 41.9685L203.321 45.5961L174.53 42.6548" stroke="#5CDABE" stroke-width="8" stroke-linecap="round" stroke-linejoin="round"/>
<path d="M203.326 46.0805L212.908 62.7121L233.022 73.0212L236.148 58.9754" stroke="#5CDABE" stroke-width="8" stroke-linecap="round" stroke-linejoin="round"/>
<path d="M233.905 73.2872L238.765 99.0853L247.072 111.753" stroke="#5CDABE" stroke-width="8" stroke-linecap="round" stroke-linejoin="round"/>
<path d="M238.574 100.476L223.212 116.484L222.243 138.079L235.432 137.274" stroke="#5CDABE" stroke-width="8" stroke-linecap="round" stroke-linejoin="round"/>
<path d="M222.161 137.969L198.543 151.114L191.298 161.226" stroke="#5CDABE" stroke-width="8" stroke-linecap="round" stroke-linejoin="round"/>
<path d="M198.558 151.103L177.323 142.895L156.249 147.625L161.392 157.35" stroke="#5CDABE" stroke-width="8" stroke-linecap="round" stroke-linejoin="round"/>
<path d="M156.041 147.781L136.682 128.549L127.012 127.781" stroke="#5CDABE" stroke-width="8" stroke-linecap="round" stroke-linejoin="round"/>
<path d="M136.973 128.65L137.224 106.753L127.22 88.5414" stroke="#5CDABE" stroke-width="8" stroke-linecap="round" stroke-linejoin="round"/>
<path d="M138.043 106.608L158.351 102.304L169.482 76.7453L160.294 57.1046" stroke="#5CDABE" stroke-width="8" stroke-linecap="round" stroke-linejoin="round"/>
<path d="M169.256 76.4066L195.938 79.5641L213.482 62.239" stroke="#5CDABE" stroke-width="8" stroke-linecap="round" stroke-linejoin="round"/>
<path d="M195.701 79.7426L202.804 106.108L223.598 116.414" stroke="#5CDABE" stroke-width="8" stroke-linecap="round" stroke-linejoin="round"/>
<path d="M178.328 144.014L178.812 121.316L202.843 106.159" stroke="#5CDABE" stroke-width="8" stroke-linecap="round" stroke-linejoin="round"/>
<path d="M178.87 121.272L158.167 102.443" stroke="#5CDABE" stroke-width="8" stroke-linecap="round" stroke-linejoin="round"/>
<path d="M102.496 176.748L85.0526 193.116" stroke="#5CDABE" stroke-width="8" stroke-linecap="round" stroke-linejoin="round"/>
<path d="M184.772 101.936L110.461 170.031" stroke="#5CDABE" stroke-width="8" stroke-linecap="round" stroke-linejoin="round"/>
<path d="M59.1652 192.105L45.5057 204.85" stroke="#5CDABE" stroke-width="8" stroke-linecap="round" stroke-linejoin="round"/>
<path d="M128.646 127.48L66.3523 185.589" stroke="#5CDABE" stroke-width="8" stroke-linecap="round" stroke-linejoin="round"/>
<path d="M81.4635 196.998L69.3028 208.027" stroke="#5CDABE" stroke-width="8" stroke-linecap="round" stroke-linejoin="round"/>
<path d="M82.7165 148.03L76.14 154.121" stroke="#5CDABE" stroke-width="8" stroke-linecap="round" stroke-linejoin="round"/>
<path d="M96.776 134.581L89.6662 141.2" stroke="#5CDABE" stroke-width="8" stroke-linecap="round" stroke-linejoin="round"/>
<path d="M130.339 105.028L105.65 127.834" stroke="#5CDABE" stroke-width="8" stroke-linecap="round" stroke-linejoin="round"/>
<path d="M145.796 187.284L141.95 190.824" stroke="#5CDABE" stroke-width="8" stroke-linecap="round" stroke-linejoin="round"/>
<path d="M159.718 174.888L155.321 178.931" stroke="#5CDABE" stroke-width="8" stroke-linecap="round" stroke-linejoin="round"/>
<path d="M181.391 154.254L159.453 174.536" stroke="#5CDABE" stroke-width="8" stroke-linecap="round" stroke-linejoin="round"/>
<path fill-rule="evenodd" clip-rule="evenodd" d="M118.708 87.511L75.9037 123.928L118.708 87.511Z" fill="#50E3C2"/>
<path d="M118.708 87.511L75.9037 123.928" stroke="#5CDABE" stroke-width="8" stroke-linecap="round"/>
</svg>
