<svg width="78" height="88" viewBox="0 0 78 88" fill="none" xmlns="http://www.w3.org/2000/svg">
<path fill-rule="evenodd" clip-rule="evenodd" d="M27.8331 78.2552C25.0679 78.3089 22.8061 75.998 22.7741 73.2163L22.2888 30.5289C22.1926 22.178 28.8443 15.2779 37.1459 15.1166C45.4471 14.955 52.2549 21.5941 52.3513 29.9445L52.8236 72.4142C52.856 75.196 50.6273 77.8118 47.862 77.8655L27.8331 78.2552Z" stroke="#43484D" stroke-width="3" stroke-linecap="round" stroke-linejoin="round"/>
<path fill-rule="evenodd" clip-rule="evenodd" d="M43.5327 14.7554L30.1559 14.848C29.6858 14.8511 29.2921 14.4743 29.2807 14.0096L29.1072 6.83494C29.0963 6.37045 29.4716 5.98817 29.9423 5.98481L43.3189 5.89269C43.7892 5.88912 44.1827 6.26637 44.1947 6.73086L44.3676 13.9057C44.3787 14.3698 44.0032 14.7525 43.5327 14.7554Z" stroke="#43484D" stroke-width="3" stroke-linecap="round" stroke-linejoin="round"/>
<path d="M43.7375 10.1667L29.3611 10.1667" stroke="#43484D" stroke-width="3" stroke-linecap="round" stroke-linejoin="round"/>
</svg>
