<svg width="229" height="42" viewBox="0 0 229 42" fill="none" xmlns="http://www.w3.org/2000/svg">
<path d="M148.219 30.3396C149.001 30.064 149.678 29.5532 150.154 28.8786C150.629 28.2039 150.88 27.399 150.872 26.5762C150.872 24.413 149.091 23.2178 145.885 23.2178H138.714L135.722 37.9257H143.506C147.366 37.9257 150.188 36.444 150.188 33.2832C150.225 32.6418 150.051 32.0061 149.691 31.4716C149.331 30.9372 148.806 30.5329 148.194 30.3198L148.219 30.3396ZM145.057 25.7613C146.433 25.7613 147.241 26.1811 147.241 27.1491C147.241 28.5172 146.159 29.2284 144.379 29.2284H140.888L141.586 25.7712L145.057 25.7613ZM143.721 35.3427H139.666L140.389 31.7077H144.548C145.905 31.7077 146.777 32.1275 146.777 33.219C146.777 34.6265 145.611 35.3427 143.721 35.3427Z" fill="#3C3C3C"/>
<path d="M222.507 38.0934C225.798 38.0934 228.257 36.7303 228.257 34.1423C228.257 30.3888 222.233 31.7075 222.233 30.053C222.233 29.4455 222.911 28.9417 224.442 28.9417C225.624 28.9184 226.789 29.2156 227.813 29.8011L229 27.4107C227.692 26.7604 226.244 26.4365 224.781 26.4673C221.45 26.4673 219.051 27.8947 219.051 30.4184C219.051 34.2362 225.1 32.8879 225.1 34.5127C225.1 35.1894 224.422 35.6141 222.871 35.6141C221.465 35.6305 220.083 35.2557 218.882 34.5325L217.63 36.8982C218.582 37.5699 220.492 38.0737 222.507 38.0737" fill="#3C3C3C"/>
<path d="M214.434 29.3074H217.276L217.775 26.7885H214.932L215.486 24.0376H212.175L211.626 26.7885H209.866L209.367 29.3074H211.128L210.215 33.8708C210.15 34.1963 210.115 34.5269 210.11 34.8586C210.11 36.8342 211.551 38.0096 213.671 38.0096C214.662 38.0469 215.645 37.8146 216.513 37.3379L216.015 35.0068C215.613 35.2564 215.152 35.3945 214.678 35.4068C213.85 35.4068 213.471 35.0068 213.471 34.3153C213.464 34.1595 213.478 34.0035 213.511 33.8511L214.434 29.3074Z" fill="#3C3C3C"/>
<path d="M206.679 21.3901C205.362 21.3901 204.495 22.2495 204.495 23.3657C204.495 24.309 205.258 25.0646 206.425 25.0646C207.741 25.0646 208.629 24.2448 208.629 23.0496C208.629 22.126 207.846 21.4099 206.679 21.4099V21.3901ZM201.966 37.9254H205.253L207.522 26.6253H204.235L201.966 37.9254Z" fill="#3C3C3C"/>
<path d="M200.575 24.7487C201.047 24.7321 201.511 24.873 201.892 25.1488L203.183 22.7979C202.379 22.3607 201.472 22.1426 200.555 22.1657C197.758 22.1657 196.102 23.761 195.568 26.2205L195.484 26.8725H193.703L193.205 29.3913H194.985L193.264 37.9207H196.576L198.296 29.3913H201.119L201.617 26.8725H198.71L198.795 26.4527C199.029 25.2723 199.578 24.7487 200.6 24.7487" fill="#3C3C3C"/>
<path d="M191.858 31.4359C191.858 28.4084 189.759 26.4575 186.427 26.4575C182.438 26.4575 179.705 29.248 179.705 33.0311C179.705 36.0982 181.974 38.0935 185.54 38.0935C187.258 38.1412 188.941 37.6082 190.312 36.5822L188.931 34.4288C188.07 35.1282 186.987 35.5011 185.874 35.4808C183.984 35.4808 183.031 34.7005 182.922 33.1694H191.664C191.784 32.6041 191.847 32.0284 191.853 31.4507L191.858 31.4359ZM186.273 28.9269C187.799 28.9269 188.821 29.7666 188.821 31.263H183.156C183.331 30.5805 183.736 29.9773 184.303 29.5527C184.871 29.1282 185.567 28.9075 186.278 28.9269" fill="#3C3C3C"/>
<path d="M173.91 26.4527C172.526 26.4252 171.183 26.9215 170.155 27.8405L170.41 26.6206H167.268L164.999 37.9207H168.31L169.457 32.1818C169.861 30.2062 171.028 29.2827 172.704 29.2827C174.02 29.2827 174.653 29.9346 174.653 31.0903C174.655 31.3527 174.626 31.6145 174.569 31.8706L173.337 37.9207H176.643L177.915 31.6583C178.014 31.2089 178.064 30.7502 178.064 30.2902C178.064 27.7911 176.409 26.4478 173.91 26.4478" fill="#3C3C3C"/>
<path d="M164.151 31.4359C164.151 28.4084 162.052 26.4575 158.721 26.4575C154.731 26.4575 151.999 29.248 151.999 33.0311C151.999 36.0982 154.268 38.0935 157.833 38.0935C159.551 38.1412 161.234 37.6082 162.606 36.5822L161.224 34.4288C160.364 35.1282 159.28 35.5011 158.167 35.4808C156.277 35.4808 155.325 34.7005 155.215 33.1694H163.957C164.077 32.6041 164.14 32.0284 164.146 31.4507L164.151 31.4359ZM158.581 28.9121C160.107 28.9121 161.129 29.7517 161.129 31.2482H155.454C155.63 30.5657 156.034 29.9625 156.602 29.5379C157.169 29.1134 157.865 28.8927 158.576 28.9121" fill="#3C3C3C"/>
<path d="M124.112 38.0934C127.404 38.0934 129.862 36.7303 129.862 34.1423C129.862 30.3888 123.838 31.7075 123.838 30.053C123.838 29.4455 124.516 28.9417 126.047 28.9417C127.229 28.9184 128.395 29.2156 129.418 29.8011L130.605 27.4107C129.298 26.7604 127.849 26.4365 126.386 26.4673C123.055 26.4673 120.657 27.8947 120.657 30.4184C120.657 34.2362 126.706 32.8879 126.706 34.5127C126.706 35.1894 126.027 35.6141 124.476 35.6141C123.071 35.6302 121.689 35.2555 120.487 34.5325L119.235 36.8982C120.188 37.5699 122.098 38.0737 124.112 38.0737" fill="#3C3C3C"/>
<path d="M116.048 29.3913H118.891L119.389 26.8725H116.547L117.1 24.1216H113.789L113.236 26.8725H111.475L110.977 29.3913H112.737L111.829 33.9351C111.764 34.2605 111.729 34.5911 111.725 34.9229C111.725 36.8984 113.166 38.0738 115.285 38.0738C116.277 38.1114 117.26 37.8791 118.128 37.4021L117.629 35.071C117.228 35.3206 116.766 35.4588 116.293 35.4711C115.465 35.4711 115.086 35.071 115.086 34.3796C115.079 34.2238 115.092 34.0677 115.126 33.9153L116.048 29.3913Z" fill="#3C3C3C"/>
<path d="M106.079 27.9636L106.354 26.6202H103.227L100.958 37.9203H104.269L105.361 32.453C105.785 30.3293 107.037 29.4255 108.987 29.4255C109.261 29.4255 109.456 29.4255 109.75 29.465L110.343 26.4424C108.498 26.4424 107.097 26.8622 106.079 27.9537" fill="#3C3C3C"/>
<path d="M93.4284 38.0935C97.4628 38.0935 100.325 35.2783 100.325 31.5198C100.325 28.4528 98.0761 26.4575 94.5754 26.4575C90.5859 26.4575 87.6836 29.2727 87.6836 33.0311C87.6836 36.0784 89.9526 38.0935 93.4334 38.0935H93.4284ZM93.6478 35.387C91.9922 35.387 91.0347 34.3992 91.0347 32.8879C91.0347 30.6802 92.436 29.169 94.3909 29.169C96.0465 29.169 96.979 30.1567 96.979 31.673C96.979 33.8806 95.5777 35.3919 93.6478 35.3919" fill="#3C3C3C"/>
<path d="M81.0955 26.4527C79.8105 26.427 78.5634 26.884 77.6047 27.7319L77.8391 26.6206H74.6974L71.6006 42.0002H74.9118L76.0239 36.4045C76.767 37.5602 78.0585 38.0837 79.7142 38.0837C83.2548 38.0837 86.0325 35.313 86.0325 31.5101C86.0325 28.2949 83.7435 26.4478 81.0905 26.4478L81.0955 26.4527ZM79.3302 35.3772C77.6745 35.3772 76.742 34.3894 76.742 32.8781C76.742 30.6705 78.1433 29.1592 80.0732 29.1592C81.7288 29.1592 82.6813 30.147 82.6813 31.6632C82.6813 33.8708 81.28 35.3821 79.3302 35.3821" fill="#3C3C3C"/>
<path d="M64.6842 38.1775C68.8233 38.1775 71.5361 36.2019 71.5361 33.1794C71.5361 28.6603 64.1507 29.9197 64.1756 27.5046C64.1756 26.4526 65.3425 25.697 67.3372 25.697C68.7642 25.6727 70.1664 26.068 71.3666 26.8329L72.6632 24.2302C71.1026 23.3498 69.3267 22.9139 67.5317 22.9707C63.4126 22.9707 60.7447 24.9463 60.7447 27.9491C60.7447 32.6361 68.1052 31.3767 68.1052 33.7276C68.1052 34.7993 66.9134 35.4512 65.0283 35.4512C63.2741 35.458 61.5617 34.9209 60.1313 33.9152L58.73 36.5427C59.9817 37.4663 62.2706 38.1775 64.7142 38.1775" fill="#3C3C3C"/>
<path d="M69.5111 15.4438C72.8623 15.4438 75.3856 13.9325 75.3856 11.1173C75.3856 6.70199 67.5164 8.45036 67.5363 4.77091C67.5363 2.71141 69.4263 1.47175 72.1641 1.47175C73.5921 1.441 74.9917 1.86897 76.1536 2.69164L76.6523 1.8076C75.326 0.931304 73.7578 0.484337 72.1641 0.528425C68.8529 0.528425 66.4143 2.09899 66.4143 4.87462C66.4143 9.41343 74.2636 7.62556 74.2636 11.2408C74.2636 13.3447 72.3337 14.5004 69.551 14.5004C67.661 14.5004 65.7112 13.7448 64.7986 12.6731L64.2251 13.4929C65.1377 14.6091 67.297 15.4685 69.4613 15.4685L69.5111 15.4438ZM94.2906 4.39555L88.7652 14.1399L86.7705 4.37087H85.8579L80.2577 14.1794L78.3278 4.38568H77.3305L79.5346 15.3499H80.532L86.0873 5.78337L88.0821 15.3252H89.0794L95.3379 4.36098L94.2906 4.39555ZM98.6741 1.72363C98.7987 1.72835 98.9231 1.70785 99.0395 1.66336C99.1559 1.61887 99.2619 1.55133 99.351 1.46489C99.4402 1.37845 99.5106 1.27491 99.558 1.1606C99.6053 1.04629 99.6287 0.923616 99.6265 0.800071C99.62 0.588719 99.5293 0.38851 99.3742 0.243214C99.2191 0.0979185 99.0122 0.0193479 98.7987 0.0246676C98.6761 0.0240128 98.5545 0.0474563 98.4411 0.0936379C98.3276 0.139819 98.2246 0.207829 98.1379 0.293721C98.0511 0.379613 97.9825 0.481687 97.9358 0.594034C97.8892 0.706382 97.8655 0.826763 97.8662 0.948231C97.8668 1.05197 97.8883 1.15455 97.9295 1.24996C97.9706 1.34537 98.0305 1.43171 98.1058 1.50391C98.181 1.57611 98.27 1.63273 98.3676 1.67046C98.4652 1.70819 98.5693 1.72626 98.6741 1.72363ZM95.303 15.3598H96.3652L98.5693 4.39555H97.5121L95.303 15.3598ZM103.591 15.4438C106.459 15.4438 108.344 14.2288 108.344 12.1545C108.344 8.51949 101.935 10.3716 101.935 7.52679C101.935 6.15872 103.252 5.23022 105.426 5.23022C106.587 5.20658 107.725 5.55284 108.673 6.21799L109.171 5.39814C108.363 4.72646 106.902 4.3264 105.526 4.3264C102.743 4.3264 100.903 5.62533 100.903 7.65026C100.903 11.3544 107.291 9.50233 107.291 12.273C107.291 13.6757 105.975 14.535 103.681 14.535C102.295 14.5777 100.94 14.1234 99.8659 13.2559L99.2924 14.0708C100.14 14.8659 101.836 15.4536 103.596 15.4536L103.591 15.4438ZM113.929 15.4536C116.796 15.4536 118.681 14.2387 118.681 12.1644C118.681 8.52938 112.273 10.3814 112.273 7.53666C112.273 6.1686 113.59 5.24009 115.764 5.24009C116.925 5.21645 118.063 5.56271 119.01 6.22786L119.509 5.40801C118.701 4.73633 117.24 4.33629 115.859 4.33629C113.076 4.33629 111.236 5.6352 111.236 7.66013C111.236 11.3643 117.624 9.51221 117.624 12.2829C117.624 13.6855 116.307 14.5449 114.014 14.5449C112.628 14.588 111.273 14.1337 110.199 13.2657L109.625 14.0806C110.473 14.8758 112.168 15.4635 113.929 15.4635" fill="#3C3C3C"/>
<path d="M60.6897 0H10.5721L0 41.9802H50.1176L60.6897 0ZM27.1184 17.1428L25.4976 20.4123C24.0993 19.6101 22.5054 19.2035 20.8898 19.2368C18.8053 19.2368 17.8977 19.9233 17.8977 20.758C17.8977 23.0249 26.126 21.2173 26.126 26.3537C26.126 29.885 22.7649 31.7469 18.2717 31.7469C15.519 31.7469 12.9109 31.0604 11.6093 30.1418L13.3497 26.897C14.9821 27.8768 16.8567 28.3897 18.7654 28.3786C20.8798 28.3786 21.8074 27.8057 21.8074 26.897C21.8074 24.719 13.5492 26.5266 13.5492 21.3013C13.5492 17.8441 16.8255 15.8685 21.3735 15.8685C23.3644 15.826 25.336 16.2632 27.1184 17.1428ZM46.3775 22.778C46.3775 27.9737 42.5825 31.7618 37.7453 31.7618C35.3416 31.7618 33.5165 30.932 32.5291 29.238L32.0653 31.5346H27.7766L32.0653 10.2432H36.5833L35.1372 17.4193C36.3991 16.3897 37.9906 15.8398 39.6253 15.8685C43.2457 15.8685 46.3775 18.3923 46.3775 22.7829V22.778ZM41.7996 22.9854C41.7996 20.8913 40.493 19.5727 38.234 19.5727C35.596 19.5727 33.686 21.6371 33.686 24.6498C33.686 26.7439 34.9626 28.0625 37.2217 28.0625C39.8896 28.0625 41.7996 25.9981 41.7996 22.9854Z" fill="#3C3C3C"/>
<path d="M140.414 0H124.825V15.4388H140.419L140.414 0ZM137.272 8.84054H133.851V12.3323H131.388V8.84054H127.967V6.40075H131.388V3.11147H133.851V6.40075H137.272V8.84054Z" fill="#3C3C3C"/>
</svg>
