<svg width="100" height="51" viewBox="0 0 100 51" fill="none" xmlns="http://www.w3.org/2000/svg">
<path fill-rule="evenodd" clip-rule="evenodd" d="M59.6129 22.3124C61.7241 19.4039 62.6844 15.4484 61.6929 11.2191C60.6945 6.98631 57.7756 3.66871 53.9518 2.49698C46.2697 0.14658 39.319 6.45938 39.319 14.561C39.319 17.4695 40.2238 20.1284 41.7422 22.2396C42.9313 23.9036 42.6193 26.3823 40.9068 27.3322C34.639 30.8058 30.174 37.5658 29.4148 45.865C29.29 47.2135 30.2468 48.3922 31.474 48.3922H69.9297C71.1569 48.3922 72.1102 47.2135 71.9889 45.865C71.2366 37.6004 66.7993 30.8612 60.5732 27.3738C58.8849 26.4274 58.4273 23.9452 59.6129 22.3124Z" stroke="#43484D" stroke-width="3.188" stroke-linecap="round" stroke-linejoin="round"/>
<path d="M33.1558 35.0247C31.7761 33.3885 30.1329 32.0261 28.3094 31.0034C26.8742 30.1991 26.5033 28.2023 27.5086 26.8157C29.2593 24.4098 30.0497 21.1373 29.2281 17.6394C28.4065 14.1381 25.9902 11.389 22.8286 10.4218C16.4742 8.48048 10.7196 13.7013 10.7196 20.3989C10.7196 22.8325 11.4892 25.0546 12.7614 26.8122C13.7702 28.2023 13.4097 30.1957 11.971 31.0034C6.93743 33.8218 3.3217 39.209 2.57636 45.8303C2.42383 47.1893 3.3945 48.3922 4.6321 48.3922H37.8462" stroke="#43484D" stroke-width="3.188" stroke-linecap="round" stroke-linejoin="round"/>
<path d="M62.6865 48.5835H95.8972C97.1383 48.5835 98.1089 47.3771 97.9564 46.0251C97.2111 39.4038 93.5953 34.0131 88.5617 31.1947C87.1265 30.3905 86.7556 28.3937 87.7644 27.007C89.5116 24.6011 90.3055 21.3286 89.4839 17.8307C88.6623 14.3294 86.2425 11.5803 83.0844 10.6131C76.73 8.67181 70.9753 13.8891 70.9753 20.5937C70.9753 23.0238 71.7415 25.2494 73.0172 27.0035C74.026 28.3937 73.662 30.3905 72.2233 31.1947C70.8089 31.9886 69.5055 32.987 68.3441 34.1553" stroke="#43484D" stroke-width="3.188" stroke-linecap="round" stroke-linejoin="round"/>
<path d="M41.7887 22.3093C42.9674 23.9352 42.5895 26.3965 40.9047 27.3325C34.013 31.1528 29.2983 38.9528 29.2983 48.3925" stroke="#43484D" stroke-width="3.188" stroke-linecap="round" stroke-linejoin="round"/>
</svg>
