<svg width="177" height="298" viewBox="0 0 177 298" fill="none" xmlns="http://www.w3.org/2000/svg">
<path fill-rule="evenodd" clip-rule="evenodd" d="M69.3952 7.65082C77.1398 3.70937 86.7217 7.10372 90.6482 14.8778L150.888 134.186C162.676 157.524 153.385 186.035 130.135 197.868C106.886 209.702 78.4818 200.375 66.6935 177.038L6.79072 58.3235C2.86274 50.5494 5.5571 40.1428 13.3017 36.2013L69.3952 7.65082Z" stroke="#5CDABE" stroke-width="10" stroke-linecap="round" stroke-linejoin="round"/>
<path fill-rule="evenodd" clip-rule="evenodd" d="M114.438 209.975L151.09 191.284C152.378 190.627 153.966 191.149 154.62 192.446L164.718 212.474C165.371 213.771 164.852 215.368 163.562 216.026L126.91 234.716C125.622 235.374 124.034 234.85 123.378 233.555L113.282 213.525C112.629 212.23 113.148 210.631 114.438 209.975Z" stroke="#5CDABE" stroke-width="10" stroke-linecap="round" stroke-linejoin="round"/>
<path d="M118 222L159 201" stroke="#5CDABE" stroke-width="5" stroke-linecap="round" stroke-linejoin="round"/>
<path fill-rule="evenodd" clip-rule="evenodd" d="M172 283.674C172 288.824 167.97 293 162.999 293C158.028 293 154 288.824 154 283.674C154 278.523 159.557 265 162.999 265C165.846 265 172 278.523 172 283.674Z" stroke="#5CDABE" stroke-width="10" stroke-linecap="round" stroke-linejoin="round"/>
</svg>
