<svg width="139" height="46" viewBox="0 0 139 46" fill="none" xmlns="http://www.w3.org/2000/svg">
<path fill-rule="evenodd" clip-rule="evenodd" d="M24.9728 3.71062C24.9728 3.71062 24.9721 3.71062 24.9713 3.71141C24.9721 3.71062 24.9728 3.71062 24.9728 3.71062ZM24.9713 3.71141C24.9705 3.71141 24.9705 3.71141 24.9705 3.71219C24.9705 3.71141 24.9705 3.71141 24.9713 3.71141ZM8.20137 22.9435C8.45744 25.6278 9.06724 27.9949 10.0208 29.9971C11.3311 32.7503 13.6165 35.6592 15.7704 35.9552C16.8562 36.1024 18.062 35.4259 18.6318 34.3406C19.1786 33.2968 19.1832 31.8897 18.6426 30.669C17.8436 28.8617 15.8727 27.4703 14.1341 26.2417L13.4981 25.7906C11.5541 24.3953 9.83392 23.4682 8.20137 22.9435ZM5.66605 22.4753C4.57948 22.4753 3.59595 22.8018 2.8785 23.4165C2.11336 24.0719 1.70273 25.0311 1.69119 26.19C1.61199 33.8739 6.7803 41.0966 13.9795 43.3659C15.7128 43.9124 17.4191 44.2162 19.0509 44.2711C27.4243 44.5553 34.3144 37.7914 35.0765 28.5524C35.4617 23.8785 35.3702 19.5334 34.8066 15.637L34.7612 15.3074C34.1052 10.5614 33.1248 9.58652 32.4396 9.66717C30.6041 9.78854 29.6359 15.6049 29.5606 19.4982C29.5506 19.9664 29.1761 20.3407 28.7162 20.3415H28.7155C28.2564 20.3415 27.8811 19.9688 27.8711 19.5005C27.602 7.16772 25.8925 4.46703 25.1712 3.87741C25.0374 3.76857 24.9513 3.74038 24.9052 3.74508C24.8229 3.78423 24.7337 3.8085 24.6429 3.8179C23.5794 4.67297 22.5867 12.5198 22.3222 19.4113C22.3037 19.8811 21.9161 20.2499 21.4571 20.2374C20.9949 20.2256 20.6281 19.8388 20.6327 19.3682C20.695 13.6246 20.0667 3.81398 18.1197 1.93705C17.9074 1.73346 17.7621 1.71702 17.6591 1.7225C16.2895 1.81489 15.073 7.23741 15.0937 15.5337C15.1107 16.0708 15.1199 16.6041 15.1284 17.1326C15.1399 17.853 15.1522 18.5758 15.1845 19.3032C15.1845 19.3149 15.1845 19.3267 15.1853 19.3384C15.186 19.3682 15.186 19.3979 15.1845 19.4269C15.1606 19.8623 14.8169 20.2162 14.3801 20.2366C13.9195 20.2656 13.5181 19.892 13.4973 19.4167C13.4558 18.4912 13.4104 17.1318 13.4043 15.554C13.3658 14.3372 13.2859 13.1501 13.0675 11.9489C12.8299 10.6444 12.3885 8.21621 10.9889 7.52792C10.7559 7.4136 10.4976 7.38932 10.3307 7.47076C10.2138 7.52714 10.0823 7.65634 9.94158 7.85444C9.20336 8.89431 8.99958 10.3547 8.80272 11.7665C8.76273 12.0499 8.72351 12.3303 8.68045 12.6028C8.19676 15.6934 7.99529 18.5491 8.08295 21.0932C8.08295 21.1018 8.08295 21.1112 8.08372 21.1191C10.6952 21.8246 12.9391 23.2842 14.4716 24.3835L15.0968 24.8283C17.0162 26.1837 19.1916 27.72 20.1829 29.9619C20.9457 31.6853 20.9218 33.6249 20.1213 35.151C19.217 36.8753 17.333 37.9112 15.5444 37.6599C11.7218 37.136 9.00496 31.8106 8.49974 30.748C7.39087 28.4169 6.70956 25.6583 6.46963 22.5332C6.19741 22.4941 5.92827 22.4753 5.66605 22.4753ZM19.5546 46C19.3685 46 19.1832 45.9969 18.9955 45.9898C17.2131 45.9311 15.3575 45.6014 13.4804 45.0095C5.583 42.5202 -0.0851575 34.5982 0.000968283 26.172C0.0186548 24.4955 0.637684 23.0868 1.79115 22.0994C2.97692 21.0838 4.62946 20.6171 6.3835 20.7902C6.32199 18.2297 6.53346 15.3865 7.01253 12.3326C7.05329 12.0687 7.09097 11.7986 7.12942 11.5245C7.34473 9.98117 7.59003 8.2303 8.57202 6.84746C8.885 6.40505 9.22489 6.09966 9.61014 5.91408C10.2399 5.61183 11.0297 5.63689 11.7241 5.97829C12.663 6.44028 13.2966 7.2609 13.7388 8.17392C14.2056 3.90795 15.2683 0.159559 17.5476 0.005301C18.1681 -0.039332 18.7733 0.198711 19.2808 0.688108C20.4943 1.8564 21.2264 4.70116 21.667 7.83487C22.306 4.24857 23.198 2.3364 24.3377 2.12185C24.726 1.98168 25.3012 1.96132 25.8918 2.30194C27.4305 3.19147 28.4963 6.25392 29.0769 11.4337C29.7367 9.54345 30.7563 8.05412 32.3312 7.94998C35.4248 7.75343 36.1315 12.8768 36.4337 15.0678L36.4783 15.3865C37.0612 19.4136 37.1566 23.891 36.7598 28.6957C35.9393 38.6606 28.5893 45.9992 19.5546 46Z" fill="#3C3C3C"/>
<path fill-rule="evenodd" clip-rule="evenodd" d="M56 40.9899C56 40.6043 56.0581 40.2312 56.1743 39.8693C56.2916 39.5088 56.4604 39.1897 56.6819 38.9146C56.9044 38.6369 57.1708 38.4158 57.4843 38.2487C57.7957 38.0829 58.1497 38 58.5444 38C58.9171 38 59.246 38.0578 59.5332 38.1759C59.8204 38.2927 60.0671 38.451 60.2721 38.6482C60.4782 38.8467 60.6415 39.0804 60.7621 39.3505C60.8827 39.6206 60.9616 39.9121 61 40.2236H60.1351C60.1077 40.0264 60.0517 39.8442 59.9684 39.6746C59.8851 39.505 59.7799 39.3593 59.6538 39.2362C59.5266 39.1156 59.3797 39.0188 59.212 38.9472C59.0432 38.8769 58.8568 38.8417 58.6529 38.8417C58.3668 38.8417 58.1114 38.902 57.8856 39.0226C57.6597 39.1407 57.4701 39.3003 57.3177 39.4987C57.1653 39.6972 57.0491 39.9259 56.968 40.1847C56.888 40.4447 56.8463 40.7123 56.8463 40.9899C56.8463 41.2852 56.8891 41.5641 56.9724 41.8241C57.0557 42.0854 57.1763 42.3166 57.3352 42.5151C57.4942 42.7148 57.6915 42.8719 57.9272 42.9862C58.1629 43.1018 58.4326 43.1583 58.7362 43.1583C58.8777 43.1583 59.0213 43.1294 59.1682 43.0716C59.314 43.0151 59.4488 42.9359 59.5716 42.8354C59.6944 42.7337 59.8029 42.6143 59.8961 42.4761C59.9882 42.3367 60.055 42.1847 60.0967 42.0201H61C60.9419 42.2965 60.8432 42.5553 60.7062 42.7965C60.5692 43.0377 60.3993 43.2475 60.1943 43.4271C59.9893 43.6068 59.7547 43.7475 59.4883 43.848C59.2208 43.9497 58.9358 44 58.6277 44C58.2188 44 57.8516 43.9183 57.5293 43.755C57.2059 43.5905 56.9307 43.3719 56.7038 43.0967C56.4769 42.8204 56.3015 42.5013 56.1809 42.1394C56.0603 41.7776 56 41.3945 56 40.9899Z" fill="#3C3C3C"/>
<path fill-rule="evenodd" clip-rule="evenodd" d="M76 43V38H76.8853V40.1512H79.1159V38H80V43H79.1159V40.8872H76.8853V43H76Z" fill="#3C3C3C"/>
<path fill-rule="evenodd" clip-rule="evenodd" d="M96 43V38H99V38.7361H96.8524V40.1512H99V40.8872H96.8524V42.2639H99V43H96Z" fill="#3C3C3C"/>
<path fill-rule="evenodd" clip-rule="evenodd" d="M114 40.9899C114 40.6043 114.058 40.2312 114.174 39.8693C114.292 39.5088 114.46 39.1897 114.682 38.9146C114.904 38.6369 115.171 38.4158 115.484 38.2487C115.796 38.0829 116.15 38 116.544 38C116.917 38 117.246 38.0578 117.533 38.1759C117.82 38.2927 118.067 38.451 118.272 38.6482C118.478 38.8467 118.642 39.0804 118.762 39.3505C118.883 39.6206 118.962 39.9121 119 40.2236H118.135C118.108 40.0264 118.052 39.8442 117.968 39.6746C117.885 39.505 117.78 39.3593 117.654 39.2362C117.527 39.1156 117.38 39.0188 117.212 38.9472C117.043 38.8769 116.857 38.8417 116.653 38.8417C116.367 38.8417 116.111 38.902 115.886 39.0226C115.66 39.1407 115.47 39.3003 115.318 39.4987C115.165 39.6972 115.049 39.9259 114.968 40.1847C114.888 40.4447 114.846 40.7123 114.846 40.9899C114.846 41.2852 114.889 41.5641 114.972 41.8241C115.056 42.0854 115.176 42.3166 115.335 42.5151C115.494 42.7148 115.692 42.8719 115.927 42.9862C116.163 43.1018 116.433 43.1583 116.736 43.1583C116.878 43.1583 117.021 43.1294 117.168 43.0716C117.314 43.0151 117.449 42.9359 117.572 42.8354C117.694 42.7337 117.803 42.6143 117.896 42.4761C117.988 42.3367 118.055 42.1847 118.097 42.0201H119C118.942 42.2965 118.843 42.5553 118.706 42.7965C118.569 43.0377 118.399 43.2475 118.194 43.4271C117.989 43.6068 117.755 43.7475 117.488 43.848C117.221 43.9497 116.936 44 116.628 44C116.219 44 115.852 43.9183 115.529 43.755C115.206 43.5905 114.931 43.3719 114.704 43.0967C114.477 42.8204 114.301 42.5013 114.181 42.1394C114.06 41.7776 114 41.3945 114 40.9899Z" fill="#3C3C3C"/>
<path fill-rule="evenodd" clip-rule="evenodd" d="M135.032 43.8598V38.1167H135.869V40.6442L137.766 38.1167H138.812L136.655 40.9895L138.812 43.8598H137.766L135.869 41.341V43.8598H135.032Z" fill="#3C3C3C"/>
<path fill-rule="evenodd" clip-rule="evenodd" d="M69 31H73V9H69V31Z" fill="#3C3C3C"/>
<path fill-rule="evenodd" clip-rule="evenodd" d="M59.7405 9H56V31H59.7405V27.7163H65V24.0346H59.7405V9Z" fill="#3C3C3C"/>
<path fill-rule="evenodd" clip-rule="evenodd" d="M83.7159 9L76 31H79.8636L80.8068 28.2094L82.2125 24.0201L82.3068 23.7365H82.3193L85.0227 15.0172L88.0568 24.9133L88.0795 24.9705L89.1932 28.2094L90.1477 31H94L86.3068 9H83.7159Z" fill="#3C3C3C"/>
<path fill-rule="evenodd" clip-rule="evenodd" d="M110.231 24.6488L101.138 9H97V31H100.769V15.3512L109.862 31H114V9H110.231V24.6488Z" fill="#3C3C3C"/>
<path fill-rule="evenodd" clip-rule="evenodd" d="M138.193 15.9482C137.651 14.637 136.856 13.4603 135.81 12.4293C134.761 11.3982 133.472 10.5689 131.944 9.94249C130.425 9.31379 128.68 9.00112 126.727 9.00112H122.958L119 9V24.0092H122.958V12.2388H126.715C128.029 12.2388 129.196 12.464 130.232 12.9C131.28 13.337 132.147 13.9198 132.847 14.6493C133.544 15.3766 134.074 16.2059 134.447 17.1372C134.809 18.0674 134.989 19.0188 134.989 20.005C134.989 20.98 134.809 21.9449 134.447 22.8751C134.074 23.8165 133.544 24.6458 132.847 25.3619C132.147 26.0791 131.28 26.663 130.232 27.0989C129.196 27.5483 128.029 27.7601 126.715 27.7601H122.946V27.7276H119.067V31H126.727C128.69 31 130.438 30.6851 131.954 30.0586C133.472 29.4299 134.761 28.6006 135.81 27.5696C136.856 26.5386 137.651 25.3731 138.193 24.0507C138.735 22.7294 139 21.3846 139 20.005C139 18.6165 138.735 17.2717 138.193 15.9482Z" fill="#3C3C3C"/>
</svg>
