<svg width="76" height="111" viewBox="0 0 76 111" fill="none" xmlns="http://www.w3.org/2000/svg">
<path d="M55.8902 100.454C55.8902 100.454 45.7176 97.2805 39.4174 101.081C39.4174 101.081 34.5877 103.445 32.935 100.052C31.1584 96.4041 33.9261 90.4285 49.179 90.2722C49.179 90.2722 61.4577 80.1683 73.5837 83.928" stroke="white" stroke-width="3" stroke-linecap="round" stroke-linejoin="round"/>
<path d="M32.4571 99.0304C26.4897 94.0887 20.5038 88.9347 20.5038 88.9347C20.5038 88.9347 18.7783 87.1364 19.6295 85.8161C20.4627 84.5246 23.4414 85.3516 26.8011 87.9395L34.5545 93.4469" stroke="white" stroke-width="3" stroke-linecap="round" stroke-linejoin="round"/>
<path d="M73.5837 96.1675C73.5837 96.1675 56.9735 106.917 50.3187 108.642C50.3187 108.642 47.7345 110.235 43.4054 107.581C42.0728 106.763 39.3903 104.682 36.3145 102.192" stroke="white" stroke-width="3" stroke-linecap="round" stroke-linejoin="round"/>
<path d="M19.3939 86.3946C19.3939 86.3946 17.3684 79.6147 25.2427 83.3933L37.6592 91.7358" stroke="white" stroke-width="3" stroke-linecap="round" stroke-linejoin="round"/>
<path d="M30.3657 86.9245C30.3657 86.9245 31.0532 83.499 34.4574 85.5471L41.9236 90.5241" stroke="white" stroke-width="3" stroke-linecap="round" stroke-linejoin="round"/>
<path fill-rule="evenodd" clip-rule="evenodd" d="M20.0832 2.66739C22.258 1.56476 24.9488 2.51433 26.0514 4.68915L42.9677 38.0659C46.278 44.5948 43.6688 52.5708 37.1398 55.8811C30.6113 59.1915 22.6349 56.5822 19.3245 50.0537L2.50286 16.8432C1.39982 14.6683 2.15644 11.7571 4.33125 10.6544L20.0832 2.66739Z" stroke="white" stroke-width="3" stroke-linecap="round" stroke-linejoin="round"/>
<path fill-rule="evenodd" clip-rule="evenodd" d="M32.381 59.1615L42.7527 53.9026C43.1173 53.7179 43.5665 53.8647 43.7517 54.2297L46.6091 59.8646C46.7938 60.2295 46.6469 60.6788 46.282 60.864L35.9103 66.1224C35.5457 66.3076 35.0965 66.1603 34.9109 65.7957L32.054 60.1604C31.8692 59.7959 32.0161 59.3462 32.381 59.1615Z" stroke="white" stroke-width="3" stroke-linecap="round" stroke-linejoin="round"/>
<path d="M33.481 62.9729L45.1746 57.0442" stroke="white" stroke-linecap="round" stroke-linejoin="round"/>
<path fill-rule="evenodd" clip-rule="evenodd" d="M45.5187 74.9604C45.5187 76.3708 44.3753 77.5141 42.9649 77.5141C41.5546 77.5141 40.4116 76.3708 40.4116 74.9604C40.4116 73.55 41.9882 69.8472 42.9649 69.8472C43.7726 69.8472 45.5187 73.55 45.5187 74.9604Z" stroke="white" stroke-width="3" stroke-linecap="round" stroke-linejoin="round"/>
</svg>
