<svg width="76" height="94" viewBox="0 0 76 94" fill="none" xmlns="http://www.w3.org/2000/svg">
<path d="M2 80.1331L13.5573 68.7744C13.5573 68.7744 15.1439 39.4697 35.9931 36.2892C35.9931 36.2892 37.0614 36.1775 37.4895 36.7544C37.7467 37.101 38.3752 37.8275 37.2011 38.7101" stroke="white" stroke-width="3" stroke-linecap="round" stroke-linejoin="round"/>
<path d="M26.2241 50.0667C26.2241 50.0667 43.1884 30.3545 46.7693 32.5906C46.7693 32.5906 49.5283 33.3215 47.5322 36.2806" stroke="white" stroke-width="3" stroke-linecap="round" stroke-linejoin="round"/>
<path d="M33.1509 53.7148C33.1509 53.7148 47.6502 30.6487 54.2833 33.7082C54.2833 33.7082 57.1594 35.6504 54.2833 38.4748C51.4068 41.2991 38.6689 58.2069 38.6689 58.2069" stroke="white" stroke-width="3" stroke-linecap="round" stroke-linejoin="round"/>
<path d="M53.6868 39.1036C53.6868 39.1036 55.9986 37.7049 57.6633 39.1036C59.3275 40.5023 54.2732 47.0518 54.2732 47.0518C54.2732 47.0518 45.0889 58.6684 42.0684 65.5266" stroke="white" stroke-width="3" stroke-linecap="round" stroke-linejoin="round"/>
<path d="M47.1562 56.817C47.1562 56.817 50.8828 53.2305 52.6703 55.3931C54.4577 57.5557 51.1908 60.4597 48.6018 66.1444C46.0129 71.8288 40.2806 77.2044 27.0283 78.811L16.6108 91.6631" stroke="white" stroke-width="3" stroke-linecap="round" stroke-linejoin="round"/>
<path d="M39.3567 35.6177C39.3567 35.6177 37.5575 11.7194 40.1434 10.1412C40.1434 10.1412 43.5175 6.87246 45.8792 24.6833" stroke="white" stroke-width="3" stroke-linecap="round" stroke-linejoin="round"/>
<path d="M43.2205 12.7019C43.2205 12.7019 40.9217 3.0397 44.356 2.25056C47.7908 1.46143 51.1644 14.8758 52.289 24.458" stroke="white" stroke-width="3" stroke-linecap="round" stroke-linejoin="round"/>
<path d="M46.894 4.05246C46.894 4.05246 51.0518 -2.48406 54.5382 9.1268" stroke="white" stroke-width="3" stroke-linecap="round" stroke-linejoin="round"/>
<path d="M57.9991 25.3597C57.9991 25.3597 56.8419 17.6075 55.5615 12.9597C54.2806 8.31185 54.3132 3.60315 56.2246 3.37793C58.1366 3.15228 62.7472 2.70141 64.4339 34.8288" stroke="white" stroke-width="3" stroke-linecap="round" stroke-linejoin="round"/>
<path d="M57.9175 39.5032C59.6598 38.0823 61.9569 36.7449 64.4339 36.7449C64.4339 36.7449 66.6833 24.3449 72.9807 24.458C72.9807 24.458 74.2719 24.0793 73.3289 27.8249C73.1329 28.6032 73.0128 29.4006 72.9598 30.2015C72.7382 33.558 71.6812 42.7823 66.6833 47.7923L59.9356 54.6997L61.1731 71.4649" stroke="white" stroke-width="3" stroke-linecap="round" stroke-linejoin="round"/>
<path d="M10.6172 47.9559C10.6172 47.9559 14.1643 35.9659 24.8055 30.3359" stroke="white" stroke-width="3" stroke-linecap="round" stroke-linejoin="round"/>
<path d="M7.66113 41.2403C7.66113 41.2403 10.9128 32.5586 19.1894 29.0029" stroke="white" stroke-width="3" stroke-linecap="round" stroke-linejoin="round"/>
</svg>
