<svg width="95" height="103" viewBox="0 0 95 103" fill="none" xmlns="http://www.w3.org/2000/svg">
<path d="M17.6044 101.154L19.7667 80.1599C19.7667 80.1599 7.62364 74.3381 7.29117 64.8568C7.29117 64.8568 6.29329 55.4557 2.80021 49.76C-0.692869 44.0643 8.12258 46.5137 12.4476 57.2656C12.4476 57.2656 16.7725 61.8626 19.7667 63.3595C22.7608 64.8568 27.4182 70.8451 26.7528 76.6669" stroke="white" stroke-width="3" stroke-linecap="round" stroke-linejoin="round"/>
<path d="M14.4087 59.2139C14.4087 59.2139 14.9432 24.6249 22.4283 25.1126C22.4283 25.1126 25.6497 24.1814 23.321 36.7805C20.9918 49.3797 21.5969 49.7603 21.5969 49.7603" stroke="white" stroke-width="3" stroke-linecap="round" stroke-linejoin="round"/>
<path d="M28.3435 48.7061C27.2478 42.7816 30.6717 34.341 30.6717 34.341C35.5584 25.8341 32.2099 25.0976 32.2099 25.0976C32.2099 25.0976 27.9521 23.3837 24.166 32.7628" stroke="white" stroke-width="3" stroke-linecap="round" stroke-linejoin="round"/>
<path d="M32.6133 24.6917C32.6133 24.6917 34.2016 22.6667 36.7353 23.9299C38.1138 24.6167 38.4546 27.4634 36.7353 33.5266C35.016 39.5899 34.1826 46.8296 35.0515 49.1822" stroke="white" stroke-width="3" stroke-linecap="round" stroke-linejoin="round"/>
<path d="M36.8906 32.9569C36.8906 32.9569 38.6435 30.2855 40.4538 31.8549C42.2641 33.4237 39.9709 45.2134 41.2988 49.7603C42.6263 54.3063 44.3743 72.4127 39.0942 84.1216L38.4016 101.154" stroke="white" stroke-width="3" stroke-linecap="round" stroke-linejoin="round"/>
<path d="M20.3979 8.61792L21.8427 16.0943" stroke="white" stroke-width="3" stroke-linecap="round" stroke-linejoin="round"/>
<path d="M10.3628 14.9114L15.488 20.1734" stroke="white" stroke-width="3" stroke-linecap="round" stroke-linejoin="round"/>
<path d="M4.20605 24.8066L11.8533 26.0703" stroke="white" stroke-width="3" stroke-linecap="round" stroke-linejoin="round"/>
<path d="M77.7077 101.154L75.546 80.1599C75.546 80.1599 87.6885 74.3381 88.021 64.8568C88.021 64.8568 89.0189 55.4557 92.5119 49.76C96.0055 44.0643 87.1896 46.5137 82.8646 57.2656C82.8646 57.2656 78.5396 61.8626 75.546 63.3595C72.5513 64.8568 67.8939 70.8451 68.5593 76.6669" stroke="white" stroke-width="3" stroke-linecap="round" stroke-linejoin="round"/>
<path d="M80.9036 59.2139C80.9036 59.2139 80.3691 24.6249 72.884 25.1126C72.884 25.1126 69.6626 24.1814 71.9913 36.7805C74.3205 49.3797 73.7154 49.7603 73.7154 49.7603" stroke="white" stroke-width="3" stroke-linecap="round" stroke-linejoin="round"/>
<path d="M67.156 47.1358C67.503 41.3977 64.6403 34.341 64.6403 34.341C59.7536 25.8341 63.1021 25.0976 63.1021 25.0976C63.1021 25.0976 67.3599 23.3837 71.1461 32.7628" stroke="white" stroke-width="3" stroke-linecap="round" stroke-linejoin="round"/>
<path d="M62.6988 24.6917C62.6988 24.6917 61.1104 22.6667 58.5768 23.9299C57.1983 24.6167 56.8575 27.4634 58.5768 33.5266C60.2961 39.5899 61.1294 46.8296 60.2605 49.1822" stroke="white" stroke-width="3" stroke-linecap="round" stroke-linejoin="round"/>
<path d="M58.4215 32.9569C58.4215 32.9569 56.6686 30.2855 54.8583 31.8549C53.048 33.4237 55.3412 45.2134 54.0133 49.7603C52.6858 54.3063 50.9378 72.4127 56.2179 84.1216L56.9105 101.154" stroke="white" stroke-width="3" stroke-linecap="round" stroke-linejoin="round"/>
<path d="M74.914 8.61792L73.4692 16.0943" stroke="white" stroke-width="3" stroke-linecap="round" stroke-linejoin="round"/>
<path d="M84.949 14.9114L79.8242 20.1734" stroke="white" stroke-width="3" stroke-linecap="round" stroke-linejoin="round"/>
<path d="M88.5505 24.8066L80.9033 26.0703" stroke="white" stroke-width="3" stroke-linecap="round" stroke-linejoin="round"/>
<path fill-rule="evenodd" clip-rule="evenodd" d="M50.1523 8.69728C53.717 8.69728 56.6065 11.5868 56.6065 15.1514C56.6065 11.5868 59.4959 8.69728 63.0606 8.69728C59.4959 8.69728 56.6065 5.8078 56.6065 2.24316C56.6065 5.8078 53.717 8.69728 50.1523 8.69728Z" stroke="white" stroke-width="3" stroke-linecap="round" stroke-linejoin="round"/>
<path fill-rule="evenodd" clip-rule="evenodd" d="M42.2095 18.4975C44.4029 18.4975 46.1806 20.2756 46.1806 22.469C46.1806 20.2756 47.9592 18.4975 50.1521 18.4975C47.9592 18.4975 46.1806 16.7193 46.1806 14.5259C46.1806 16.7193 44.4029 18.4975 42.2095 18.4975Z" stroke="white" stroke-width="3" stroke-linecap="round" stroke-linejoin="round"/>
<path d="M18.5649 52.4791C18.5649 52.4791 23.4833 45.4841 36.89 50.5422" stroke="white" stroke-width="3" stroke-linecap="round" stroke-linejoin="round"/>
<path d="M76.7953 52.4791C76.7953 52.4791 71.8769 45.4841 58.4702 50.5422" stroke="white" stroke-width="3" stroke-linecap="round" stroke-linejoin="round"/>
</svg>
