<svg width="74" height="67" viewBox="0 0 74 67" fill="none" xmlns="http://www.w3.org/2000/svg">
<path d="M62.5873 31.9683V64.7523H11.2729V31.9683" stroke="#43484D" stroke-width="3.188" stroke-linecap="round" stroke-linejoin="round"/>
<path d="M28.3848 64.7575V47.6527C28.3848 46.8535 29.0112 46.2271 29.8104 46.2271H44.064C44.8464 46.2271 45.4896 46.8535 45.4896 47.6527V64.7575" stroke="#43484D" stroke-width="3.188" stroke-linecap="round" stroke-linejoin="round"/>
<path d="M1.92627 21.7578L10.6767 2.44497C10.6767 1.82337 11.3295 2.03457 12.1359 2.03457H61.7271C62.5311 2.03457 63.1839 1.82337 63.1839 2.44497L71.9367 21.9378" stroke="#43484D" stroke-width="3.188" stroke-linecap="round" stroke-linejoin="round"/>
<path d="M19.4272 22.4878C19.4272 27.3214 23.3464 31.2382 28.1776 31.2382C33.0136 31.2382 36.9304 27.3214 36.9304 22.4878" stroke="#43484D" stroke-width="3.188" stroke-linecap="round" stroke-linejoin="round"/>
<path d="M54.4336 22.4878C54.4336 27.3214 58.3528 31.2382 63.184 31.2382C68.0176 31.2382 71.9368 26.7694 71.9368 21.9382" stroke="#43484D" stroke-width="3.188" stroke-linecap="round" stroke-linejoin="round"/>
<path d="M36.9302 22.4878C36.9302 27.3214 40.8494 31.2382 45.6806 31.2382C50.5142 31.2382 54.4334 27.3214 54.4334 22.4878" stroke="#43484D" stroke-width="3.188" stroke-linecap="round" stroke-linejoin="round"/>
<path d="M1.92627 21.7578C1.92627 26.5914 5.84307 31.2402 10.6767 31.2402C15.5103 31.2402 19.4271 27.321 19.4271 22.4874" stroke="#43484D" stroke-width="3.188" stroke-linecap="round" stroke-linejoin="round"/>
</svg>
