<svg width="252" height="252" viewBox="0 0 252 252" fill="none" xmlns="http://www.w3.org/2000/svg">
<path fill-rule="evenodd" clip-rule="evenodd" d="M126 252C195.588 252 252 195.588 252 126C252 56.4121 195.588 0 126 0C56.4121 0 0 56.4121 0 126C0 195.588 56.4121 252 126 252ZM125.577 239.315C187.926 239.315 238.47 188.772 238.47 126.423C238.47 64.0739 187.926 13.5302 125.577 13.5302C63.2283 13.5302 12.6846 64.0739 12.6846 126.423C12.6846 188.772 63.2283 239.315 125.577 239.315Z" fill="#EB7A6B"/>
<path d="M119.43 149.433L85.2299 115.233L74 126.463L119.43 171.893L190.893 100.43L179.663 89.2L119.43 149.433Z" fill="#EB7A6B"/>
</svg>
